<svg width="1105" height="328" viewBox="0 0 1105 328" fill="none" xmlns="http://www.w3.org/2000/svg">
<g filter="url(#filter0_d_1225_12985)">
<rect x="4" y="0.237793" width="1097" height="319.762" rx="20" fill="#252525" fill-opacity="0.76" shape-rendering="crispEdges"/>
<rect x="4.5" y="0.737793" width="1096" height="318.762" rx="19.5" stroke="url(#paint0_linear_1225_12985)" shape-rendering="crispEdges"/>
</g>
<line x1="268.902" y1="259.545" x2="1059" y2="259.545" stroke="#939393"/>
<line opacity="0.8" x1="268.902" y1="218.665" x2="1059" y2="218.665" stroke="#737373"/>
<line opacity="0.8" x1="268.902" y1="177.785" x2="1059" y2="177.785" stroke="#737373"/>
<line opacity="0.8" x1="268.902" y1="136.906" x2="1059" y2="136.906" stroke="#737373"/>
<line opacity="0.8" x1="268" y1="95.5928" x2="1057.31" y2="95.5928" stroke="#737373"/>
<line opacity="0.8" x1="268" y1="54.6973" x2="1057.31" y2="54.6973" stroke="#737373"/>
<path d="M68.83 65.704H56.07V58.466H68.83V65.704ZM53.342 49.38V47.51H63.66V49.38H59.744V49.534C59.744 52.438 61.922 54.572 64.21 55.298L62.956 57.102C61.35 56.442 59.414 54.902 58.578 53.054C58.006 54.99 55.894 56.904 53.936 57.652L52.572 55.892C55.322 54.858 57.412 52.526 57.412 49.6V49.38H53.342ZM68.808 57.454H66.564V53.032H63.374V51.162H66.564V46.344H68.808V57.454ZM66.586 63.9V60.204H58.336V63.9H66.586ZM83.3772 60.468L82.1892 62.14C80.2312 61.26 77.9872 58.972 77.3492 57.058C76.8212 59.06 74.8192 61.48 72.5312 62.624L71.1232 60.974C74.0932 59.412 76.1392 56.728 76.1392 52.768V52.68H72.0912V50.898H82.4752V52.68H78.4712V52.768C78.4712 56.728 80.6492 59.17 83.3772 60.468ZM86.9192 46.344V54.154H89.8672V56.046H86.9192V65.946H84.6532V46.344H86.9192ZM74.3352 49.248V47.466H80.1872V49.248H74.3352ZM112.174 62.294C112.174 64.45 109.688 65.88 105.376 65.88C101.042 65.88 98.5776 64.45 98.5776 62.294C98.5776 60.16 101.042 58.708 105.354 58.708C109.688 58.708 112.174 60.16 112.174 62.294ZM113.34 52.658L112.35 54.44C109.424 54.088 106.432 52.438 105.376 50.568C104.474 52.504 101.658 54.11 98.4236 54.462L97.4336 52.68C100.514 52.504 103.462 51.118 104.1 48.94H98.2916V47.114H112.482V48.94H106.718C107.422 51.118 110.7 52.504 113.34 52.658ZM114.22 55.694V57.498H96.5096V55.694H114.22ZM109.842 62.294C109.842 61.194 108.126 60.534 105.354 60.534C102.604 60.534 100.888 61.194 100.888 62.294C100.888 63.438 102.604 64.054 105.354 64.054C108.126 64.054 109.842 63.438 109.842 62.294ZM133.673 55.87H130.769V65.946H128.503V46.344H130.769V54H133.673V55.87ZM125.621 48.412C125.467 54.484 122.497 59.17 116.843 62.272L115.435 60.556C119.945 58.488 122.827 54.374 123.201 50.26H116.579V48.412H125.621ZM144.832 57.872C144.832 60.226 142.962 62.052 140.168 62.052C137.352 62.052 135.46 60.292 135.46 57.872C135.46 55.54 137.352 53.692 140.168 53.692C142.962 53.692 144.832 55.474 144.832 57.872ZM142.61 57.872C142.61 56.486 141.576 55.54 140.168 55.54C138.738 55.54 137.726 56.486 137.726 57.872C137.726 59.236 138.738 60.204 140.168 60.204C141.686 60.204 142.61 59.236 142.61 57.872ZM145.822 52.746H134.426V50.92H145.822V52.746ZM137.198 49.336V47.488H143.138V49.336H137.198ZM149.804 46.344V54.396H152.84V56.288H149.804V65.946H147.538V46.344H149.804ZM171.325 57.938H153.615V56.112H171.325V57.938ZM169.147 53.714H156.013V46.982H158.279V51.91H169.147V53.714ZM169.279 65.418H155.903V59.654H158.169V63.614H169.279V65.418ZM189.628 51.58H178.276V49.798H189.628V51.58ZM188.594 55.738C188.594 57.806 186.614 59.148 183.996 59.148C181.356 59.148 179.354 57.806 179.354 55.738C179.354 53.714 181.334 52.328 183.996 52.328C186.614 52.328 188.594 53.714 188.594 55.738ZM186.438 55.738C186.438 54.704 185.316 54.044 183.996 54.044C182.61 54.044 181.51 54.704 181.51 55.738C181.51 56.794 182.61 57.41 183.996 57.41C185.316 57.41 186.438 56.794 186.438 55.738ZM181.114 48.588V46.784H186.856V48.588H181.114ZM193.654 46.344V52.482H196.558V54.352H193.654V60.842H191.388V46.344H193.654ZM194.226 65.418H181.114V60.16H183.38V63.614H194.226V65.418ZM199.599 59.17H205.187V55.628H197.465V53.802H210.093C210.423 52.482 210.577 50.612 210.599 48.94H199.731V47.114H212.843C212.843 49.974 212.667 52.108 212.271 53.802H215.175V55.628H207.431V59.17H212.865V66.012H210.621V60.996H199.599V59.17ZM227.808 52.57C227.808 55.276 225.564 57.036 222.682 57.036C219.822 57.036 217.666 55.232 217.666 52.57C217.666 49.864 219.844 47.884 222.682 47.884C225.586 47.884 227.808 49.82 227.808 52.57ZM225.542 52.548C225.542 50.854 224.266 49.82 222.682 49.82C221.164 49.82 219.866 50.92 219.866 52.548C219.866 54.11 221.186 55.122 222.682 55.122C224.222 55.122 225.542 54.11 225.542 52.548ZM232.89 46.344V65.946H230.646V46.344H232.89ZM229.546 59.126L229.722 60.93C225.52 61.392 221.296 61.59 216.698 61.612L216.346 59.676C218.436 59.698 220.57 59.698 222.858 59.566C225.652 59.456 227.852 59.302 229.546 59.126ZM66.542 81.344H68.808V92.322H66.542V81.344ZM68.83 100.704H55.982V93.422H68.83V100.704ZM66.564 98.9V95.182H58.27V98.9H66.564ZM64.518 89.924L63.198 91.684C61.57 91.002 59.546 89.352 58.71 87.504C58.116 89.528 56.136 91.332 54.09 92.19L52.704 90.408C55.52 89.308 57.522 86.954 57.522 83.918V82.18H59.832V83.83C59.832 86.888 62.252 89.176 64.518 89.924ZM83.7732 93.906L84.0152 95.754C81.8592 96.15 78.7792 96.348 75.2372 96.37L72.8172 96.392V88.472H79.4612V84.864H72.7292V83.06H81.7052V90.276H75.0612V94.522C77.3932 94.522 81.2432 94.39 83.7732 93.906ZM87.8212 100.946H85.5772V81.344H87.8212V100.946ZM108.836 87.966H105.954V92.938H103.688V81.344H105.954V86.096H108.836V87.966ZM106.218 97.052C106.218 99.384 103.754 100.946 99.5523 100.946C95.3723 100.946 92.9303 99.384 92.9303 97.052C92.9303 94.676 95.3723 93.136 99.5523 93.136C103.754 93.136 106.218 94.676 106.218 97.052ZM103.908 97.052C103.908 95.732 102.302 94.962 99.5523 94.962C96.8243 94.962 95.2403 95.732 95.2403 97.052C95.2403 98.35 96.8243 99.12 99.5523 99.12C102.302 99.12 103.908 98.35 103.908 97.052ZM102.082 90.056L100.784 91.816C99.1783 91.134 97.1543 89.506 96.3183 87.636C95.7243 89.704 93.6783 91.508 91.6983 92.344L90.3123 90.562C93.1283 89.418 95.1303 87.086 95.1303 84.072V82.202H97.4623V83.962C97.4623 87.02 99.8603 89.33 102.082 90.056ZM127.849 87.878H124.989V92.3H122.723V81.344H124.989V85.986H127.849V87.878ZM124.989 100.682H112.427V93.334H124.989V100.682ZM122.723 98.9V95.116H114.693V98.9H122.723ZM120.633 88.89L120.985 90.672C118.961 91.09 115.991 91.31 112.493 91.332H110.447V82.664H119.115V84.49H112.691V89.528C115.595 89.528 118.587 89.33 120.633 88.89ZM150.706 95.556H148.462V89.132H144.612V87.284H148.462V81.344H150.706V95.556ZM144.59 82.862C144.414 88.318 140.982 91.728 135.812 93.312L134.646 91.508C138.254 90.738 141.554 88.318 142.148 84.754H135.57V82.862H144.59ZM151.168 100.44H137.88V94.258H140.146V98.636H151.168V100.44ZM163.559 100.968H161.315V93.84H153.615V92.058H171.325V93.84H163.559V100.968ZM170.577 88.296L169.543 90.122C166.639 89.638 163.471 87.724 162.481 85.546C161.623 87.724 158.433 89.616 155.463 90.144L154.473 88.296C157.949 87.9 161.315 85.59 161.315 82.774V81.784H163.691V82.774C163.691 85.59 167.409 87.988 170.577 88.296Z" fill="white"/>
<path d="M268.84 280.452V279.724L270.996 277.484C272.326 276.098 273.25 275.034 273.25 273.718C273.25 272.5 272.662 271.912 271.346 271.912C270.562 271.912 269.806 272.29 269.26 272.654L268.966 271.702C269.554 271.31 270.52 270.862 271.584 270.862C273.516 270.862 274.552 271.912 274.552 273.592C274.552 275.244 273.474 276.448 271.934 278.002L270.534 279.416H274.734V280.452H268.84ZM279.834 280.62C277.86 280.62 276.334 279.304 276.334 276.098V275.356C276.334 272.024 277.972 270.876 279.848 270.876C281.71 270.876 283.264 272.024 283.264 275.3V276.112C283.264 279.332 281.752 280.62 279.834 280.62ZM279.834 279.612C281.234 279.612 281.99 278.66 281.99 276.266V275.3C281.99 272.948 281.248 271.884 279.848 271.884C278.42 271.884 277.65 272.892 277.65 275.202V276.196C277.65 278.506 278.392 279.612 279.834 279.612ZM286.485 280.508V272.276L284.777 272.654V271.94L287.045 270.89H287.717V280.508H286.485ZM293.306 280.634C291.234 280.634 289.96 279.598 289.96 278.058C289.96 276.826 290.996 275.972 292.032 275.566C291.038 275.16 290.24 274.46 290.24 273.256C290.24 271.87 291.416 270.862 293.264 270.862C295.07 270.862 296.288 271.716 296.288 273.186C296.288 274.32 295.378 274.992 294.412 275.482C295.56 275.86 296.652 276.532 296.652 277.932C296.652 279.458 295.378 280.634 293.306 280.634ZM293.278 279.64C294.482 279.64 295.35 278.982 295.35 278.058C295.35 276.938 294.594 276.504 293.012 276.014C292.102 276.322 291.192 276.994 291.192 277.988C291.192 278.996 292.046 279.64 293.278 279.64ZM293.502 275.034C294.342 274.67 295.028 274.11 295.028 273.242C295.028 272.444 294.426 271.856 293.292 271.856C292.214 271.856 291.542 272.36 291.542 273.228C291.542 274.166 292.256 274.726 293.502 275.034Z" fill="#ACACAC"/>
<path d="M516.84 280.452V279.724L518.996 277.484C520.326 276.098 521.25 275.034 521.25 273.718C521.25 272.5 520.662 271.912 519.346 271.912C518.562 271.912 517.806 272.29 517.26 272.654L516.966 271.702C517.554 271.31 518.52 270.862 519.584 270.862C521.516 270.862 522.552 271.912 522.552 273.592C522.552 275.244 521.474 276.448 519.934 278.002L518.534 279.416H522.734V280.452H516.84ZM527.834 280.62C525.86 280.62 524.334 279.304 524.334 276.098V275.356C524.334 272.024 525.972 270.876 527.848 270.876C529.71 270.876 531.264 272.024 531.264 275.3V276.112C531.264 279.332 529.752 280.62 527.834 280.62ZM527.834 279.612C529.234 279.612 529.99 278.66 529.99 276.266V275.3C529.99 272.948 529.248 271.884 527.848 271.884C526.42 271.884 525.65 272.892 525.65 275.202V276.196C525.65 278.506 526.392 279.612 527.834 279.612ZM534.485 280.508V272.276L532.777 272.654V271.94L535.045 270.89H535.717V280.508H534.485ZM540.984 270.876C543.112 270.876 544.316 272.332 544.316 275.006V275.622C544.316 278.982 542.916 280.62 540.634 280.62C539.668 280.62 538.772 280.326 538.338 280.032L538.646 279.136C539.052 279.374 539.822 279.598 540.564 279.598C542.076 279.598 542.972 278.702 543.07 276.098C542.566 276.658 541.796 277.106 540.774 277.106C539.178 277.106 537.904 275.958 537.904 274.152C537.904 272.36 539.024 270.876 540.984 270.876ZM540.998 271.87C539.808 271.87 539.122 272.78 539.122 274.054C539.122 275.482 539.948 276.098 541.054 276.098C541.908 276.098 542.692 275.496 543.07 274.978V274.712C543.07 273.004 542.454 271.87 540.998 271.87Z" fill="#ACACAC"/>
<path d="M764.84 280.452V279.724L766.996 277.484C768.326 276.098 769.25 275.034 769.25 273.718C769.25 272.5 768.662 271.912 767.346 271.912C766.562 271.912 765.806 272.29 765.26 272.654L764.966 271.702C765.554 271.31 766.52 270.862 767.584 270.862C769.516 270.862 770.552 271.912 770.552 273.592C770.552 275.244 769.474 276.448 767.934 278.002L766.534 279.416H770.734V280.452H764.84ZM775.834 280.62C773.86 280.62 772.334 279.304 772.334 276.098V275.356C772.334 272.024 773.972 270.876 775.848 270.876C777.71 270.876 779.264 272.024 779.264 275.3V276.112C779.264 279.332 777.752 280.62 775.834 280.62ZM775.834 279.612C777.234 279.612 777.99 278.66 777.99 276.266V275.3C777.99 272.948 777.248 271.884 775.848 271.884C774.42 271.884 773.65 272.892 773.65 275.202V276.196C773.65 278.506 774.392 279.612 775.834 279.612ZM780.891 280.452V279.724L783.047 277.484C784.377 276.098 785.301 275.034 785.301 273.718C785.301 272.5 784.713 271.912 783.397 271.912C782.613 271.912 781.857 272.29 781.311 272.654L781.017 271.702C781.605 271.31 782.571 270.862 783.635 270.862C785.567 270.862 786.603 271.912 786.603 273.592C786.603 275.244 785.525 276.448 783.985 278.002L782.585 279.416H786.785V280.452H780.891ZM791.885 280.62C789.911 280.62 788.385 279.304 788.385 276.098V275.356C788.385 272.024 790.023 270.876 791.899 270.876C793.761 270.876 795.315 272.024 795.315 275.3V276.112C795.315 279.332 793.803 280.62 791.885 280.62ZM791.885 279.612C793.285 279.612 794.041 278.66 794.041 276.266V275.3C794.041 272.948 793.299 271.884 791.899 271.884C790.471 271.884 789.701 272.892 789.701 275.202V276.196C789.701 278.506 790.443 279.612 791.885 279.612Z" fill="#ACACAC"/>
<path d="M1015.84 280.452V279.724L1018 277.484C1019.33 276.098 1020.25 275.034 1020.25 273.718C1020.25 272.5 1019.66 271.912 1018.35 271.912C1017.56 271.912 1016.81 272.29 1016.26 272.654L1015.97 271.702C1016.55 271.31 1017.52 270.862 1018.58 270.862C1020.52 270.862 1021.55 271.912 1021.55 273.592C1021.55 275.244 1020.47 276.448 1018.93 278.002L1017.53 279.416H1021.73V280.452H1015.84ZM1026.83 280.62C1024.86 280.62 1023.33 279.304 1023.33 276.098V275.356C1023.33 272.024 1024.97 270.876 1026.85 270.876C1028.71 270.876 1030.26 272.024 1030.26 275.3V276.112C1030.26 279.332 1028.75 280.62 1026.83 280.62ZM1026.83 279.612C1028.23 279.612 1028.99 278.66 1028.99 276.266V275.3C1028.99 272.948 1028.25 271.884 1026.85 271.884C1025.42 271.884 1024.65 272.892 1024.65 275.202V276.196C1024.65 278.506 1025.39 279.612 1026.83 279.612ZM1031.89 280.452V279.724L1034.05 277.484C1035.38 276.098 1036.3 275.034 1036.3 273.718C1036.3 272.5 1035.71 271.912 1034.4 271.912C1033.61 271.912 1032.86 272.29 1032.31 272.654L1032.02 271.702C1032.6 271.31 1033.57 270.862 1034.63 270.862C1036.57 270.862 1037.6 271.912 1037.6 273.592C1037.6 275.244 1036.52 276.448 1034.98 278.002L1033.58 279.416H1037.78V280.452H1031.89ZM1040.88 280.508V272.276L1039.17 272.654V271.94L1041.44 270.89H1042.11V280.508H1040.88Z" fill="#ACACAC"/>
<ellipse cx="282.5" cy="218.575" rx="5.5" ry="5.49591" fill="#FDF2B4"/>
<ellipse cx="531.5" cy="174.608" rx="5.5" ry="5.49591" fill="#FDF2B4"/>
<ellipse cx="779.5" cy="131.639" rx="5.5" ry="5.49591" fill="#FDF2B4"/>
<line y1="-1" x2="503.989" y2="-1" transform="matrix(0.98483 -0.173523 0.173773 0.984786 282 220.074)" stroke="#FDF2B4" stroke-width="2"/>
<line y1="-1" x2="260.981" y2="-1" transform="matrix(0.951124 -0.308809 0.309225 0.950989 779 133.139)" stroke="#FDF2B4" stroke-width="2"/>
<path d="M1009.5 82.1904H998.88V81.2104C998.88 78.6304 999.82 77.3704 1002.52 76.3904L1005.52 75.3304C1007.46 74.6104 1008.1 73.9504 1008.1 72.5304C1008.1 70.7704 1006.88 69.9304 1004.34 69.9304C1001.44 69.9304 1000.24 71.0504 1000.24 73.0504V73.2904H998.82V73.1104C998.82 70.7304 1000.46 68.5904 1004.38 68.5904C1007.98 68.5904 1009.54 70.3704 1009.54 72.5304C1009.54 74.5904 1008.26 75.7504 1005.9 76.5504L1003.16 77.4704C1000.96 78.2504 1000.34 79.1304 1000.34 81.0104L1003.34 80.8904H1009.5V82.1904ZM1021.75 82.1904H1011.13V81.2104C1011.13 78.6304 1012.07 77.3704 1014.77 76.3904L1017.77 75.3304C1019.71 74.6104 1020.35 73.9504 1020.35 72.5304C1020.35 70.7704 1019.13 69.9304 1016.59 69.9304C1013.69 69.9304 1012.49 71.0504 1012.49 73.0504V73.2904H1011.07V73.1104C1011.07 70.7304 1012.71 68.5904 1016.63 68.5904C1020.23 68.5904 1021.79 70.3704 1021.79 72.5304C1021.79 74.5904 1020.51 75.7504 1018.15 76.5504L1015.41 77.4704C1013.21 78.2504 1012.59 79.1304 1012.59 81.0104L1015.59 80.8904H1021.75V82.1904ZM1029.41 82.3904C1025.59 82.3904 1023.19 79.8104 1023.19 75.4904C1023.19 71.1904 1025.59 68.5904 1029.41 68.5904C1033.21 68.5904 1035.61 71.1904 1035.61 75.4904C1035.61 79.8104 1033.21 82.3904 1029.41 82.3904ZM1029.41 81.0304C1032.51 81.0304 1034.11 79.2304 1034.11 75.4904C1034.11 71.7504 1032.51 69.9504 1029.41 69.9504C1026.29 69.9504 1024.69 71.7504 1024.69 75.4904C1024.69 79.2304 1026.29 81.0304 1029.41 81.0304ZM1038.06 67.2904H1046.36V75.6704H1038.06V67.2904ZM1044.74 68.6304H1039.68V74.3304H1044.74V68.6304ZM1049.68 65.6504H1051.34V78.9104H1049.68V65.6504ZM1050.82 71.1704H1054.02V72.5504H1050.82V71.1704ZM1040.08 81.9904H1052.16V83.3504H1040.08V81.9904ZM1040.08 77.6504H1041.74V82.5704H1040.08V77.6504Z" fill="#FDF2B4"/>
<path d="M757.78 161.132H756.36V150.472H753.2V149.392H753.9C755.38 149.392 756.1 148.992 756.62 147.732H757.78V161.132ZM765.497 161.332C762.437 161.332 760.197 159.752 760.197 157.052V156.912H761.737V157.052C761.737 158.712 762.717 159.972 765.497 159.972C768.857 159.972 770.097 158.112 770.097 154.472V153.252H769.957C769.477 154.832 767.657 156.032 764.997 156.032C761.717 156.032 759.797 154.412 759.797 151.832C759.797 149.212 761.837 147.532 765.417 147.532C769.717 147.532 771.577 149.512 771.577 154.412C771.577 158.492 769.637 161.332 765.497 161.332ZM765.437 154.952C768.157 154.952 769.817 153.812 769.817 151.892C769.817 149.932 768.257 148.892 765.477 148.892C762.577 148.892 761.257 149.892 761.257 151.932C761.257 153.912 762.537 154.952 765.437 154.952ZM779.354 161.332C775.534 161.332 773.134 158.752 773.134 154.432C773.134 150.132 775.534 147.532 779.354 147.532C783.154 147.532 785.554 150.132 785.554 154.432C785.554 158.752 783.154 161.332 779.354 161.332ZM779.354 159.972C782.454 159.972 784.054 158.172 784.054 154.432C784.054 150.692 782.454 148.892 779.354 148.892C776.234 148.892 774.634 150.692 774.634 154.432C774.634 158.172 776.234 159.972 779.354 159.972ZM788.002 146.232H796.302V154.612H788.002V146.232ZM794.682 147.572H789.622V153.272H794.682V147.572ZM799.622 144.592H801.282V157.852H799.622V144.592ZM800.762 150.112H803.962V151.492H800.762V150.112ZM790.022 160.932H802.102V162.292H790.022V160.932ZM790.022 156.592H791.682V161.512H790.022V156.592Z" fill="#FDF2B4"/>
<path d="M510.78 205.1H509.36V194.44H506.2V193.36H506.9C508.38 193.36 509.1 192.96 509.62 191.7H510.78V205.1ZM516.957 205.12H515.377C515.377 198.76 518.277 195.48 521.177 193.1V193H512.157V191.7H522.797V192.86C518.837 196.34 516.957 199.6 516.957 205.12ZM529.873 205.3C526.053 205.3 523.653 202.72 523.653 198.4C523.653 194.1 526.053 191.5 529.873 191.5C533.673 191.5 536.073 194.1 536.073 198.4C536.073 202.72 533.673 205.3 529.873 205.3ZM529.873 203.94C532.973 203.94 534.573 202.14 534.573 198.4C534.573 194.66 532.973 192.86 529.873 192.86C526.753 192.86 525.153 194.66 525.153 198.4C525.153 202.14 526.753 203.94 529.873 203.94ZM538.521 190.2H546.821V198.58H538.521V190.2ZM545.201 191.54H540.141V197.24H545.201V191.54ZM550.141 188.56H551.801V201.82H550.141V188.56ZM551.281 194.08H554.481V195.46H551.281V194.08ZM540.541 204.9H552.621V206.26H540.541V204.9ZM540.541 200.56H542.201V205.48H540.541V200.56Z" fill="#FDF2B4"/>
<path d="M272.78 249.066H271.36V238.406H268.2V237.326H268.9C270.38 237.326 271.1 236.926 271.62 235.666H272.78V249.066ZM280.457 249.266C276.777 249.266 274.697 247.626 274.697 245.146V244.866H276.157V245.146C276.157 247.066 277.677 247.966 280.477 247.966C282.977 247.966 284.397 247.106 284.397 244.886C284.397 242.706 283.017 241.866 280.497 241.866C278.477 241.866 277.237 242.286 276.257 242.946L276.197 242.926V242.946L274.877 242.746L275.557 235.666H285.317V236.966H276.797L276.277 242.086L276.377 242.106C277.237 241.386 278.917 240.686 280.917 240.686C283.857 240.686 285.897 242.146 285.897 244.886C285.897 247.586 283.817 249.266 280.457 249.266ZM293.553 249.266C289.733 249.266 287.333 246.686 287.333 242.366C287.333 238.066 289.733 235.466 293.553 235.466C297.353 235.466 299.753 238.066 299.753 242.366C299.753 246.686 297.353 249.266 293.553 249.266ZM293.553 247.906C296.653 247.906 298.253 246.106 298.253 242.366C298.253 238.626 296.653 236.826 293.553 236.826C290.433 236.826 288.833 238.626 288.833 242.366C288.833 246.106 290.433 247.906 293.553 247.906ZM302.201 234.166H310.501V242.546H302.201V234.166ZM308.881 235.506H303.821V241.206H308.881V235.506ZM313.821 232.526H315.481V245.786H313.821V232.526ZM314.961 238.046H318.161V239.426H314.961V238.046ZM304.221 248.866H316.301V250.226H304.221V248.866ZM304.221 244.526H305.881V249.446H304.221V244.526Z" fill="#FDF2B4"/>
<ellipse cx="1026.5" cy="51.6995" rx="5.5" ry="5.49591" fill="#FDF2B4"/>
<defs>
<filter id="filter0_d_1225_12985" x="0" y="0.237793" width="1105" height="327.762" filterUnits="userSpaceOnUse" color-interpolation-filters="sRGB">
<feFlood flood-opacity="0" result="BackgroundImageFix"/>
<feColorMatrix in="SourceAlpha" type="matrix" values="0 0 0 0 0 0 0 0 0 0 0 0 0 0 0 0 0 0 127 0" result="hardAlpha"/>
<feOffset dy="4"/>
<feGaussianBlur stdDeviation="2"/>
<feComposite in2="hardAlpha" operator="out"/>
<feColorMatrix type="matrix" values="0 0 0 0 0 0 0 0 0 0 0 0 0 0 0 0 0 0 0.25 0"/>
<feBlend mode="normal" in2="BackgroundImageFix" result="effect1_dropShadow_1225_12985"/>
<feBlend mode="normal" in="SourceGraphic" in2="effect1_dropShadow_1225_12985" result="shape"/>
</filter>
<linearGradient id="paint0_linear_1225_12985" x1="552.5" y1="0.237771" x2="1132.49" y2="274.177" gradientUnits="userSpaceOnUse">
<stop stop-color="#585858"/>
<stop offset="1" stop-color="#484848" stop-opacity="0"/>
</linearGradient>
</defs>
</svg>
