<svg width="56" height="56" viewBox="0 0 56 56" fill="none" xmlns="http://www.w3.org/2000/svg">
<path d="M28 55.0003C42.9117 55.0003 55 42.9119 55 28.0002C55 13.0884 42.9117 1 28 1C13.0883 1 1 13.0884 1 28.0002C1 42.9119 13.0883 55.0003 28 55.0003Z" fill="white" stroke="black" stroke-width="0.374999" stroke-miterlimit="10"/>
<path d="M27.9635 51.5792C41.0143 51.5792 51.5941 40.9994 51.5941 27.9485C51.5941 14.8977 41.0143 4.31787 27.9635 4.31787C14.9128 4.31787 4.33301 14.8977 4.33301 27.9485C4.33301 40.9994 14.9128 51.5792 27.9635 51.5792Z" fill="#2DEF7B" stroke="black" stroke-width="0.374999" stroke-miterlimit="10"/>
<path d="M20.8843 32.6378C20.5672 32.8 19.8225 33.2645 19.7488 34.0755C19.7193 34.3631 19.7341 34.6875 19.8815 35.034C20.3903 36.258 21.6068 36.0884 21.8206 36.0441C22.1082 35.9852 25.5514 34.8866 28.1835 35.034C30.8157 35.1815 33.1972 36.0884 33.1972 36.0884C33.1972 36.0884 34.8561 36.6635 35.4312 35.2847C36.0063 33.906 34.7676 33.2129 34.1704 32.8147C33.5732 32.4166 28.3089 29.3715 21.7543 32.2323C21.4667 32.3576 21.1865 32.4903 20.899 32.6378H20.8843Z" fill="#FF5043" stroke="black" stroke-width="0.374999" stroke-miterlimit="10"/>
<path d="M22.3398 32.0186C22.3398 32.0186 28.0466 33.884 33.016 32.6601C33.2003 32.6158 33.2224 32.3578 33.0529 32.284C32.0944 31.849 30.3691 31.097 27.6558 31.0085C25.1121 30.9274 25.8715 30.9053 25.8715 30.9053L22.3398 32.0112V32.0186Z" fill="white" stroke="black" stroke-width="0.374999" stroke-miterlimit="10"/>
<path d="M27.1943 23.4732C27.1943 18.725 30.1214 14.8762 33.7268 14.8762C37.3322 14.8762 40.2593 18.725 40.2593 23.4732C40.2593 27.3293 38.0695 29.4528 35.4079 30.544C34.7959 30.7947 34.3093 31.0453 33.631 31.0453C30.0256 31.0453 27.1943 28.2215 27.1943 23.4732Z" fill="white" stroke="black" stroke-width="0.374999" stroke-miterlimit="10"/>
<path d="M34.7795 27.3368C36.7503 27.3368 38.348 25.3199 38.348 22.8318C38.348 20.3438 36.7503 18.3269 34.7795 18.3269C32.8086 18.3269 31.2109 20.3438 31.2109 22.8318C31.2109 25.3199 32.8086 27.3368 34.7795 27.3368Z" fill="#542D1D" stroke="black" stroke-width="0.374999" stroke-miterlimit="10"/>
<path d="M27.565 25.1911C33.2275 22.8612 40.1434 24.793 40.1434 24.793C40.1434 24.793 39.3029 31.6573 33.9427 32.0628C33.9427 32.0628 29.6074 32.5937 27.624 26.5109L27.3291 25.4713L27.565 25.1837V25.1911Z" fill="#2DEF7B" stroke="black" stroke-width="0.374999" stroke-miterlimit="10"/>
<path d="M23.2305 32.0702C26.8587 32.0702 29.7999 28.2212 29.7999 23.4732C29.7999 18.7252 26.8587 14.8762 23.2305 14.8762C19.6023 14.8762 16.6611 18.7252 16.6611 23.4732C16.6611 28.2212 19.6023 32.0702 23.2305 32.0702Z" fill="white" stroke="black" stroke-width="0.374999" stroke-miterlimit="10"/>
<path d="M23.6857 27.3368C25.6566 27.3368 27.2543 25.3199 27.2543 22.8318C27.2543 20.3438 25.6566 18.3269 23.6857 18.3269C21.7149 18.3269 20.1172 20.3438 20.1172 22.8318C20.1172 25.3199 21.7149 27.3368 23.6857 27.3368Z" fill="#542D1D" stroke="black" stroke-width="0.374999" stroke-miterlimit="10"/>
<path d="M16.7988 25.3312C22.4613 23.0013 29.7164 24.5202 29.7164 24.5202C29.7164 24.5202 29.3108 31.6941 23.4051 32.0628C23.4051 32.0628 19.0845 32.5937 17.0938 26.5404C17.0938 26.5256 17.0864 26.5035 17.079 26.4888L16.8283 25.5303L16.7988 25.3312Z" fill="#2DEF7B" stroke="black" stroke-width="0.374999" stroke-miterlimit="10"/>
<path d="M15.4287 16.0927C15.4287 16.0927 21.7179 17.619 28.1472 14.6992L15.4287 16.0927Z" fill="#2DEF7B"/>
<path d="M15.3864 16.2697C16.2269 16.4688 17.097 16.5573 17.9596 16.6163C20.0093 16.7637 22.0811 16.631 24.0939 16.2108C25.5243 15.9158 26.9178 15.4587 28.245 14.8615C28.4588 14.7656 28.2745 14.4486 28.0606 14.5445C24.4331 16.1813 20.2452 16.6826 16.3154 16.0707C16.0352 16.0264 15.7624 15.9822 15.4896 15.9158C15.2611 15.8569 15.1578 16.2181 15.3938 16.2697H15.3864Z" fill="black"/>
<path d="M29.9638 37.0915C29.9638 37.0915 26.7566 35.3515 23.4756 38.6841L29.9638 37.0915Z" fill="#2DEF7B"/>
<path d="M30.0628 36.9366C29.6499 36.7154 29.1633 36.5901 28.7062 36.5237C27.6223 36.3615 26.5238 36.5237 25.5284 36.9808C24.71 37.3569 23.9874 37.9172 23.3534 38.5587C23.1838 38.7282 23.4492 38.9863 23.6114 38.8167C24.5773 37.8435 25.7643 37.0841 27.1357 36.8776C27.9173 36.7596 28.7283 36.8334 29.473 37.0914C29.6278 37.143 29.731 37.1799 29.8711 37.2536C30.0776 37.3642 30.2692 37.0472 30.0554 36.9366H30.0628Z" fill="black"/>
<path d="M22.2196 15.8274C23.9217 15.8274 25.3015 15.3224 25.3015 14.6994C25.3015 14.0763 23.9217 13.5713 22.2196 13.5713C20.5175 13.5713 19.1377 14.0763 19.1377 14.6994C19.1377 15.3224 20.5175 15.8274 22.2196 15.8274Z" fill="#2DEF7B"/>
</svg>
