<svg width="56" height="56" viewBox="0 0 56 56" fill="none" xmlns="http://www.w3.org/2000/svg">
<path d="M28 55.0003C42.9117 55.0003 55 42.9119 55 28.0002C55 13.0884 42.9117 1 28 1C13.0883 1 1 13.0884 1 28.0002C1 42.9119 13.0883 55.0003 28 55.0003Z" fill="white" stroke="black" stroke-width="0.374999" stroke-miterlimit="10"/>
<path d="M27.9987 51.6307C41.0495 51.6307 51.6292 41.0509 51.6292 28.0001C51.6292 14.9492 41.0495 4.36938 27.9987 4.36938C14.9479 4.36938 4.36816 14.9492 4.36816 28.0001C4.36816 41.0509 14.9479 51.6307 27.9987 51.6307Z" fill="#959595" stroke="black" stroke-width="0.374999" stroke-miterlimit="10"/>
<path d="M18.1572 35.0045C18.5258 34.7317 18.8207 34.3336 19.0051 33.9133C19.418 32.9622 19.0935 31.9963 18.4742 31.2148C18.3267 31.0305 18.0687 31.2885 18.2161 31.4728C18.747 32.1438 19.0272 32.9991 18.6438 33.8101C18.5332 34.046 18.3857 34.2599 18.2088 34.4516C18.1498 34.5105 18.0908 34.5769 18.0245 34.6285C18.0023 34.6506 17.9065 34.7244 17.9728 34.6727C17.7885 34.8128 17.9728 35.1372 18.1572 34.9898V35.0045Z" fill="black"/>
<path d="M37.2017 31.5612C36.8846 31.8783 36.6487 32.3207 36.5381 32.7557C36.28 33.7363 36.7224 34.6505 37.4376 35.3215C37.6072 35.4837 37.8726 35.2256 37.6957 35.0634C37.0616 34.4662 36.6487 33.6626 36.9141 32.7852C37.0173 32.4313 37.2164 32.07 37.4671 31.8267C37.6367 31.6571 37.3712 31.399 37.209 31.5686L37.2017 31.5612Z" fill="black"/>
<path d="M24.299 30.4554C26.2699 30.4554 27.8675 28.4385 27.8675 25.9505C27.8675 23.4625 26.2699 21.4456 24.299 21.4456C22.3282 21.4456 20.7305 23.4625 20.7305 25.9505C20.7305 28.4385 22.3282 30.4554 24.299 30.4554Z" fill="#542D1D" stroke="black" stroke-width="0.374999" stroke-miterlimit="10"/>
<path d="M22.749 31.7973C26.3772 31.7973 29.3184 27.9482 29.3184 23.2003C29.3184 18.4523 26.3772 14.6033 22.749 14.6033C19.1209 14.6033 16.1797 18.4523 16.1797 23.2003C16.1797 27.9482 19.1209 31.7973 22.749 31.7973Z" fill="white" stroke="black" stroke-width="0.374999" stroke-miterlimit="10"/>
<path d="M24.7101 30.1383C26.681 30.1383 28.2787 28.1214 28.2787 25.6334C28.2787 23.1453 26.681 21.1284 24.7101 21.1284C22.7393 21.1284 21.1416 23.1453 21.1416 25.6334C21.1416 28.1214 22.7393 30.1383 24.7101 30.1383Z" fill="#542D1D" stroke="black" stroke-width="0.374999" stroke-miterlimit="10"/>
<path d="M19.0869 33.0876L36.502 33.4489" stroke="black" stroke-width="0.374999" stroke-miterlimit="10"/>
<path d="M33.2295 31.7973C36.8577 31.7973 39.7989 27.9482 39.7989 23.2003C39.7989 18.4523 36.8577 14.6033 33.2295 14.6033C29.6014 14.6033 26.6602 18.4523 26.6602 23.2003C26.6602 27.9482 29.6014 31.7973 33.2295 31.7973Z" fill="white" stroke="black" stroke-width="0.374999" stroke-miterlimit="10"/>
<path d="M35.1896 30.1383C37.1605 30.1383 38.7582 28.1214 38.7582 25.6334C38.7582 23.1453 37.1605 21.1284 35.1896 21.1284C33.2188 21.1284 31.6211 23.1453 31.6211 25.6334C31.6211 28.1214 33.2188 30.1383 35.1896 30.1383Z" fill="#542D1D" stroke="black" stroke-width="0.374999" stroke-miterlimit="10"/>
</svg>
