<svg width="56" height="56" viewBox="0 0 56 56" fill="none" xmlns="http://www.w3.org/2000/svg">
<path d="M28 55.0003C42.9117 55.0003 55 42.9119 55 28.0002C55 13.0884 42.9117 1 28 1C13.0883 1 1 13.0884 1 28.0002C1 42.9119 13.0883 55.0003 28 55.0003Z" fill="white" stroke="black" stroke-width="0.374999" stroke-miterlimit="10"/>
<path d="M27.9987 51.6307C41.0495 51.6307 51.6292 41.0509 51.6292 28.0001C51.6292 14.9492 41.0495 4.36938 27.9987 4.36938C14.9479 4.36938 4.36816 14.9492 4.36816 28.0001C4.36816 41.0509 14.9479 51.6307 27.9987 51.6307Z" fill="#79D7FF" stroke="black" stroke-width="0.374999" stroke-miterlimit="10"/>
<path d="M17.0177 33.8322C17.9246 33.8544 18.8683 33.3382 19.2812 32.5198C19.5024 32.0701 19.5835 31.5687 19.5835 31.0673C19.5835 30.8314 19.2148 30.8314 19.2148 31.0673C19.2148 31.7825 19.0305 32.4977 18.4628 32.9696C18.2932 33.1097 18.0425 33.2424 17.8435 33.3087C17.7402 33.3456 17.6296 33.3751 17.5264 33.3972C17.4822 33.4046 17.4379 33.412 17.4011 33.4267C17.379 33.4267 17.3568 33.4267 17.3347 33.4341C17.3273 33.4341 17.32 33.4341 17.3126 33.4341C17.2757 33.4341 17.3568 33.4341 17.3126 33.4341C17.2167 33.4415 17.1209 33.4562 17.0324 33.4562C16.7965 33.4562 16.7965 33.8175 17.0324 33.8249L17.0177 33.8322Z" fill="black"/>
<path d="M35.9258 31.5759C35.9479 32.4902 36.4935 33.4118 37.334 33.7805C37.7912 33.9869 38.2925 34.0385 38.7939 34.0164C39.0298 34.0017 39.0298 33.633 38.7939 33.6478C38.0787 33.6846 37.3488 33.5372 36.8548 32.9842C36.5599 32.6598 36.3977 32.2543 36.3166 31.8192C36.3166 31.7971 36.3166 31.775 36.3092 31.7529C36.3092 31.7455 36.3092 31.7381 36.3092 31.7234C36.3092 31.6865 36.3092 31.7676 36.3092 31.7308C36.3092 31.7013 36.3092 31.6718 36.3018 31.6497C36.2944 31.6275 36.3018 31.598 36.3018 31.5686C36.3018 31.3326 35.9258 31.3326 35.9332 31.5686L35.9258 31.5759Z" fill="black"/>
<path d="M29.2603 23.2001C29.2603 27.9483 26.3332 31.7971 22.7278 31.7971C19.1224 31.7971 16.1953 27.9483 16.1953 23.2001C16.1953 19.344 18.3851 17.2205 21.0468 16.1293C21.6587 15.8786 22.1453 15.6279 22.8237 15.6279C26.4291 15.6279 29.2603 18.4518 29.2603 23.2001Z" fill="white" stroke="black" stroke-width="0.374999" stroke-miterlimit="10"/>
<path d="M21.6721 28.3468C23.6429 28.3468 25.2406 26.3299 25.2406 23.8419C25.2406 21.3538 23.6429 19.3369 21.6721 19.3369C19.7012 19.3369 18.1035 21.3538 18.1035 23.8419C18.1035 26.3299 19.7012 28.3468 21.6721 28.3468Z" fill="#542D1D" stroke="black" stroke-width="0.374999" stroke-miterlimit="10"/>
<path d="M28.8928 21.4899C23.2303 23.8198 16.3145 21.888 16.3145 21.888C16.3145 21.888 17.155 15.0237 22.5152 14.6182C22.5152 14.6182 26.8505 14.0873 28.8338 20.1701L29.1288 21.2097L28.8928 21.4972V21.4899Z" fill="#79D7FF" stroke="black" stroke-width="0.374999" stroke-miterlimit="10"/>
<path d="M33.2295 31.7973C36.8577 31.7973 39.7989 27.9482 39.7989 23.2003C39.7989 18.4523 36.8577 14.6033 33.2295 14.6033C29.6014 14.6033 26.6602 18.4523 26.6602 23.2003C26.6602 27.9482 29.6014 31.7973 33.2295 31.7973Z" fill="white" stroke="black" stroke-width="0.374999" stroke-miterlimit="10"/>
<path d="M32.7707 28.3468C34.7415 28.3468 36.3392 26.3299 36.3392 23.8419C36.3392 21.3538 34.7415 19.3369 32.7707 19.3369C30.7998 19.3369 29.2021 21.3538 29.2021 23.8419C29.2021 26.3299 30.7998 28.3468 32.7707 28.3468Z" fill="#542D1D" stroke="black" stroke-width="0.374999" stroke-miterlimit="10"/>
<path d="M39.6578 21.3423C33.9953 23.6722 26.7402 22.1533 26.7402 22.1533C26.7402 22.1533 27.1458 14.9794 33.0515 14.6107C33.0515 14.6107 37.3721 14.0798 39.3628 20.1331C39.3628 20.1479 39.3702 20.17 39.3776 20.1847L39.6283 21.1432L39.6578 21.3423Z" fill="#79D7FF" stroke="black" stroke-width="0.374999" stroke-miterlimit="10"/>
<path d="M18.8643 32.7927C18.8643 32.7927 26.4437 40.1805 36.7512 33.213" stroke="black" stroke-width="0.374999" stroke-miterlimit="10"/>
</svg>
